<svg width="35" height="36" viewBox="0 0 35 36" fill="none" xmlns="http://www.w3.org/2000/svg">
<path fill-rule="evenodd" clip-rule="evenodd" d="M4.63286 18.7292C4.82505 18.8209 5.08457 18.9185 5.41499 19.0175C6.1585 19.2402 7.18008 19.4466 8.41497 19.6219C10.8797 19.9719 14.1144 20.1875 17.4998 20.1875C20.8853 20.1875 24.12 19.9719 26.5847 19.6219C27.8196 19.4466 28.8412 19.2402 29.5847 19.0175C29.9151 18.9185 30.1746 18.8209 30.3668 18.7292C30.2597 18.6781 30.1263 18.6226 29.9633 18.5644C29.2948 18.3255 28.2952 18.0982 27.0337 17.903C24.5216 17.5141 21.0965 17.2708 17.4998 17.2708C13.9032 17.2708 10.4781 17.5141 7.96601 17.903C6.70448 18.0982 5.70489 18.3255 5.03635 18.5644C4.87338 18.6226 4.73996 18.6781 4.63286 18.7292ZM3.04399 19.2383C2.9679 19.0924 2.9165 18.9208 2.9165 18.7292C2.9165 18.2233 3.2581 17.8863 3.51331 17.6997C3.7903 17.4972 4.15194 17.3317 4.54571 17.191C5.34221 16.9065 6.44703 16.6624 7.74294 16.4618C10.3457 16.0589 13.8478 15.8125 17.4998 15.8125C21.1519 15.8125 24.6539 16.0589 27.2567 16.4618C28.5526 16.6624 29.6575 16.9065 30.454 17.191C30.8477 17.3317 31.2094 17.4972 31.4864 17.6997C31.7416 17.8863 32.0832 18.2233 32.0832 18.7292C32.0832 18.9209 32.0318 19.0924 31.9557 19.2383C31.3793 20.9144 27.8776 29.6667 17.4998 29.6667C7.12204 29.6667 3.62033 20.9143 3.04399 19.2383Z" fill="#007BFF"/>
<path fill-rule="evenodd" clip-rule="evenodd" d="M10.3875 6.58377C10.652 6.2801 11.1126 6.24833 11.4162 6.51282C11.7071 6.76616 11.9468 7.04449 12.1167 7.38443C12.2867 7.72437 12.3656 8.0831 12.3937 8.4678C12.4606 9.3824 11.7914 9.89786 11.4567 10.1556C11.4413 10.1675 11.4267 10.1788 11.4128 10.1895C10.9714 10.5325 10.9373 10.6108 10.9373 10.7085C10.9373 11.0981 11.0329 11.4011 11.1886 11.6347C11.3444 11.8684 11.5873 12.0731 11.947 12.2229C12.3187 12.3778 12.4945 12.8047 12.3396 13.1765C12.1847 13.5482 11.7578 13.724 11.3861 13.5691C10.7979 13.324 10.3117 12.9484 9.97524 12.4437C9.63876 11.939 9.479 11.3456 9.479 10.7085C9.479 9.83348 10.129 9.33596 10.4606 9.08212C10.481 9.06647 10.5003 9.05175 10.5181 9.03793C10.9487 8.70332 10.9443 8.64203 10.9393 8.57502L10.9393 8.57422C10.921 8.32388 10.8753 8.16254 10.8124 8.03662C10.7494 7.9107 10.6477 7.77738 10.4584 7.61252C10.1548 7.34803 10.123 6.88745 10.3875 6.58377Z" fill="#007BFF"/>
<path fill-rule="evenodd" clip-rule="evenodd" d="M16.95 6.58377C17.2145 6.2801 17.6751 6.24833 17.9787 6.51282C18.2696 6.76616 18.5093 7.04449 18.6792 7.38443C18.8492 7.72437 18.9281 8.0831 18.9562 8.4678C19.0231 9.3824 18.3539 9.89786 18.0192 10.1556C18.0038 10.1675 17.9892 10.1788 17.9753 10.1895C17.5339 10.5325 17.4998 10.6108 17.4998 10.7085C17.4998 11.0981 17.5954 11.4011 17.7511 11.6347C17.9069 11.8684 18.1498 12.0731 18.5095 12.2229C18.8812 12.3778 19.057 12.8047 18.9021 13.1765C18.7472 13.5482 18.3203 13.724 17.9486 13.5691C17.3604 13.324 16.8742 12.9484 16.5377 12.4437C16.2013 11.939 16.0415 11.3456 16.0415 10.7085C16.0415 9.83348 16.6915 9.33596 17.0231 9.08212C17.0435 9.06647 17.0628 9.05175 17.0806 9.03793C17.5112 8.70332 17.5068 8.64203 17.5018 8.57502L17.5018 8.57422C17.4835 8.32388 17.4378 8.16254 17.3749 8.03662C17.3119 7.9107 17.2102 7.77738 17.0209 7.61252C16.7173 7.34803 16.6855 6.88745 16.95 6.58377Z" fill="#007BFF"/>
<path fill-rule="evenodd" clip-rule="evenodd" d="M23.5125 6.58377C23.777 6.2801 24.2376 6.24833 24.5412 6.51282C24.8321 6.76616 25.0718 7.04449 25.2417 7.38443C25.4117 7.72437 25.4906 8.0831 25.5187 8.4678C25.5856 9.3824 24.9164 9.89786 24.5817 10.1556C24.5663 10.1675 24.5517 10.1788 24.5378 10.1895C24.0964 10.5325 24.0623 10.6108 24.0623 10.7085C24.0623 11.0981 24.1579 11.4011 24.3136 11.6347C24.4694 11.8684 24.7123 12.0731 25.072 12.2229C25.4437 12.3778 25.6195 12.8047 25.4646 13.1765C25.3097 13.5482 24.8828 13.724 24.5111 13.5691C23.9229 13.324 23.4367 12.9484 23.1002 12.4437C22.7638 11.939 22.604 11.3456 22.604 10.7085C22.604 9.83348 23.254 9.33596 23.5856 9.08212C23.606 9.06647 23.6253 9.05175 23.6431 9.03793C24.0737 8.70332 24.0693 8.64203 24.0643 8.57502L24.0643 8.57422C24.046 8.32388 24.0003 8.16254 23.9374 8.03662C23.8744 7.9107 23.7727 7.77738 23.5834 7.61252C23.2798 7.34803 23.248 6.88745 23.5125 6.58377Z" fill="#007BFF"/>
</svg>
