<svg width="35" height="36" viewBox="0 0 35 36" fill="none" xmlns="http://www.w3.org/2000/svg">
<path fill-rule="evenodd" clip-rule="evenodd" d="M25.3246 7.58274C23.4592 5.95936 20.6309 6.15558 19.0075 8.02102L14.2224 13.5196C15.0932 14.9973 15.8847 16.0587 16.7862 16.9041C18.1704 15.7668 19.9434 15.0833 21.875 15.0833C22.7504 15.0833 23.5942 15.2238 24.3844 15.4839L25.7629 13.8998C27.3863 12.0344 27.19 9.20612 25.3246 7.58274ZM6.51389 20.1561L17.9074 7.06367C20.0595 4.59066 23.8089 4.33053 26.2819 6.48264C28.755 8.63475 29.0151 12.3841 26.863 14.8572L24.814 17.2116L24.3321 17.0169C23.5741 16.7106 22.7452 16.5416 21.875 16.5416C20.0627 16.5416 18.423 17.2754 17.2347 18.4638C16.0463 19.6521 15.3125 21.2918 15.3125 23.1041C15.3125 24.2976 15.6304 25.4145 16.1857 26.3773L16.4455 26.8279L16.1041 27.2203C14.9982 28.4911 13.5458 29.4913 11.9549 29.8389C10.3338 30.1931 8.61741 29.8555 7.09492 28.5306C4.62192 26.3785 4.36178 22.6291 6.51389 20.1561Z" fill="#007BFF"/>
<path fill-rule="evenodd" clip-rule="evenodd" d="M23.9813 8.68225C24.0819 8.29231 23.8473 7.89465 23.4574 7.79405C21.1401 7.19622 19.7264 8.82275 19.1625 9.4715C19.1539 9.48142 19.1455 9.4911 19.1373 9.50055C18.8729 9.80434 18.9048 10.2649 19.2086 10.5293C19.5124 10.7936 19.973 10.7617 20.2373 10.4579C20.8306 9.77622 21.688 8.84365 23.0931 9.20615C23.483 9.30675 23.8807 9.07219 23.9813 8.68225Z" fill="#007BFF"/>
<path fill-rule="evenodd" clip-rule="evenodd" d="M21.8748 16.5418C18.2505 16.5418 15.3123 19.48 15.3123 23.1043C15.3123 26.7287 18.2505 29.6668 21.8748 29.6668C25.4992 29.6668 28.4373 26.7287 28.4373 23.1043C28.4373 19.48 25.4992 16.5418 21.8748 16.5418ZM13.854 23.1043C13.854 18.6745 17.4451 15.0835 21.8748 15.0835C26.3046 15.0835 29.8957 18.6745 29.8957 23.1043C29.8957 27.5341 26.3046 31.1252 21.8748 31.1252C17.4451 31.1252 13.854 27.5341 13.854 23.1043Z" fill="#007BFF"/>
<path fill-rule="evenodd" clip-rule="evenodd" d="M16.2405 24.614C16.1363 24.225 16.3671 23.8252 16.7561 23.7209L26.6166 21.0788C27.0056 20.9746 27.4054 21.2054 27.5096 21.5944C27.6138 21.9834 27.383 22.3832 26.994 22.4875L17.1335 25.1296C16.7445 25.2338 16.3447 25.003 16.2405 24.614Z" fill="#007BFF"/>
</svg>
