<svg width="33" height="34" viewBox="0 0 33 34" fill="none" xmlns="http://www.w3.org/2000/svg">
<path fill-rule="evenodd" clip-rule="evenodd" d="M9.96875 14.4023C9.96875 10.762 13.2595 8.40625 16.5 8.40625C19.7405 8.40625 23.0313 10.762 23.0313 14.4023C23.0313 14.9614 23.0075 15.395 22.9588 15.7292C22.9095 16.0666 22.8379 16.2787 22.7581 16.4114C22.6855 16.5322 22.605 16.5902 22.5049 16.6222C22.3904 16.6588 22.227 16.6683 21.984 16.6388C21.743 16.6096 21.4559 16.5468 21.1043 16.4636C21.0279 16.4456 20.9487 16.4266 20.8668 16.407C20.5778 16.3378 20.2537 16.2602 19.9012 16.1856C18.9906 15.993 17.8676 15.8154 16.5 15.8154C15.1324 15.8154 14.0095 15.993 13.0988 16.1856C12.7463 16.2601 12.4235 16.3375 12.1344 16.4067C12.0522 16.4264 11.9724 16.4455 11.8957 16.4636C11.5441 16.5468 11.2571 16.6096 11.016 16.6388C10.773 16.6683 10.6096 16.6588 10.4951 16.6222C10.395 16.5902 10.3145 16.5322 10.2419 16.4114C10.1621 16.2787 10.0905 16.0666 10.0412 15.7292C9.99246 15.395 9.96875 14.9614 9.96875 14.4023ZM22.6875 14.25C22.6875 16.5657 22.1013 16.4436 20.3549 16.0799C19.4265 15.8866 18.1703 15.625 16.5 15.625C14.8297 15.625 13.5735 15.8866 12.6451 16.0799C10.8987 16.4436 10.3125 16.5657 10.3125 14.25C10.3125 11.2124 13.4624 8.75 16.5 8.75C19.5376 8.75 22.6875 11.2124 22.6875 14.25Z" fill="#007BFF"/>
<path fill-rule="evenodd" clip-rule="evenodd" d="M6.02068 6.52068C4.8125 7.72887 4.8125 9.67341 4.8125 13.5625V20.4375C4.8125 24.3266 4.8125 26.2711 6.02068 27.4793C7.22887 28.6875 9.17341 28.6875 13.0625 28.6875H19.9375C23.8266 28.6875 25.7711 28.6875 26.9793 27.4793C28.1875 26.2711 28.1875 24.3266 28.1875 20.4375V13.5625C28.1875 9.67341 28.1875 7.72887 26.9793 6.52068C25.7711 5.3125 23.8266 5.3125 19.9375 5.3125H13.0625C9.17341 5.3125 7.22887 5.3125 6.02068 6.52068ZM26.125 23.1875C26.125 22.8078 25.8172 22.5 25.4375 22.5C25.0578 22.5 24.75 22.8078 24.75 23.1875C24.75 24.1729 24.5795 24.6634 24.385 24.9065C24.2231 25.1088 23.9527 25.25 23.375 25.25C22.9953 25.25 22.6875 25.5578 22.6875 25.9375C22.6875 26.3172 22.9953 26.625 23.375 26.625C24.1723 26.625 24.9331 26.4224 25.4587 25.7654C25.9517 25.1492 26.125 24.2646 26.125 23.1875ZM16.5 7.71875C12.9904 7.71875 9.28125 10.2805 9.28125 14.4023C9.28125 14.9762 9.30529 15.4471 9.36094 15.8285C9.41615 16.2068 9.5057 16.5213 9.65268 16.7657C9.80681 17.022 10.0187 17.1917 10.2857 17.277C10.5382 17.3578 10.8164 17.3555 11.0986 17.3213C11.3827 17.2869 11.7044 17.2153 12.054 17.1327C12.1339 17.1137 12.2157 17.0942 12.2993 17.0741C12.5872 17.0052 12.8984 16.9307 13.241 16.8582C14.1208 16.6722 15.194 16.5029 16.5 16.5029C17.806 16.5029 18.8792 16.6722 19.759 16.8582C20.1016 16.9307 20.4127 17.0052 20.7005 17.0741C20.7842 17.0941 20.8661 17.1137 20.946 17.1327C21.2956 17.2153 21.6173 17.2869 21.9014 17.3213C22.1836 17.3555 22.4618 17.3578 22.7143 17.277C22.9813 17.1917 23.1932 17.022 23.3473 16.7657C23.4943 16.5213 23.5838 16.2068 23.6391 15.8285C23.6947 15.4471 23.7188 14.9762 23.7188 14.4023C23.7188 10.2805 20.0096 7.71875 16.5 7.71875Z" fill="#007BFF"/>
<path fill-rule="evenodd" clip-rule="evenodd" d="M9.96875 14.4023C9.96875 10.762 13.2595 8.40625 16.5 8.40625C19.7405 8.40625 23.0312 10.762 23.0312 14.4023C23.0312 14.9614 23.0075 15.395 22.9588 15.7292C22.9095 16.0666 22.8379 16.2787 22.7581 16.4114C22.6855 16.5322 22.605 16.5902 22.5049 16.6222C22.3904 16.6588 22.227 16.6683 21.984 16.6388C21.743 16.6096 21.4559 16.5468 21.1043 16.4636C21.0276 16.4455 20.948 16.4264 20.8658 16.4067C20.5767 16.3375 20.2537 16.2602 19.9012 16.1856C18.9906 15.993 17.8676 15.8154 16.5 15.8154C15.1324 15.8154 14.0095 15.993 13.0988 16.1856C12.7462 16.2602 12.4233 16.3375 12.1343 16.4067C12.052 16.4264 11.9724 16.4455 11.8957 16.4636C11.5441 16.5468 11.257 16.6096 11.016 16.6388C10.773 16.6683 10.6096 16.6588 10.4951 16.6222C10.395 16.5902 10.3145 16.5322 10.2419 16.4114C10.1621 16.2787 10.0905 16.0666 10.0412 15.7292C9.99246 15.395 9.96875 14.9614 9.96875 14.4023ZM12.7133 10.884C12.592 10.9874 12.476 11.0948 12.3655 11.2058L12.8611 11.7014C13.1296 11.9699 13.1296 12.4052 12.8611 12.6736C12.5927 12.9421 12.1573 12.9421 11.8889 12.6736L11.525 12.3097C11.3035 12.7065 11.1461 13.1273 11.0644 13.5625H11.6875C12.0672 13.5625 12.375 13.8703 12.375 14.25C12.375 14.6297 12.0672 14.9375 11.6875 14.9375H11.025C11.0341 15.0413 11.0454 15.1328 11.059 15.2136C11.0977 15.4442 11.1466 15.5391 11.168 15.5701C11.1709 15.5743 11.1724 15.5771 11.1724 15.5771C11.1724 15.5771 11.176 15.5786 11.1855 15.5813C11.2285 15.5932 11.327 15.6051 11.5295 15.5838C11.7282 15.5629 11.9716 15.5169 12.2889 15.4517L12.5006 15.4078C12.7612 15.3535 13.0569 15.2919 13.3786 15.2327C14.0545 15.1084 14.8611 14.9915 15.8126 14.9518L15.8125 14.9375V12.1875C15.8125 11.8078 16.1203 11.5 16.5 11.5C16.8797 11.5 17.1875 11.8078 17.1875 12.1875V14.9375L17.1874 14.9518C18.1389 14.9915 18.9455 15.1084 19.6214 15.2327C19.9431 15.2919 20.2388 15.3535 20.4994 15.4078L20.7111 15.4517C21.0284 15.5169 21.2718 15.5629 21.4705 15.5838C21.673 15.6051 21.7715 15.5932 21.8145 15.5813C21.824 15.5786 21.8276 15.5771 21.8276 15.5771L21.8294 15.574L21.832 15.5701C21.8534 15.5391 21.9023 15.4442 21.941 15.2136C21.9546 15.1328 21.9659 15.0413 21.975 14.9375H21.3125C20.9328 14.9375 20.625 14.6297 20.625 14.25C20.625 13.8703 20.9328 13.5625 21.3125 13.5625H21.9356C21.8539 13.1273 21.6965 12.7065 21.475 12.3097L21.1111 12.6736C20.8427 12.9421 20.4073 12.9421 20.1389 12.6736C19.8704 12.4052 19.8704 11.9699 20.1389 11.7014L20.6345 11.2058C20.524 11.0948 20.408 10.9874 20.2867 10.884C20.1355 10.7551 19.9773 10.6333 19.8133 10.5194C19.7907 10.5516 19.7649 10.5823 19.7361 10.6111L19.0486 11.2986C18.7802 11.5671 18.3448 11.5671 18.0764 11.2986C17.8079 11.0302 17.8079 10.5948 18.0764 10.3264L18.5571 9.84563C18.113 9.66957 17.6512 9.54641 17.1875 9.48417V10.125C17.1875 10.5047 16.8797 10.8125 16.5 10.8125C16.1203 10.8125 15.8125 10.5047 15.8125 10.125V9.48417C15.3488 9.54641 14.887 9.66957 14.4429 9.84563L14.9236 10.3264C15.1921 10.5948 15.1921 11.0302 14.9236 11.2986C14.6552 11.5671 14.2198 11.5671 13.9514 11.2986L13.2639 10.6111C13.2351 10.5823 13.2093 10.5516 13.1867 10.5194C13.0227 10.6333 12.8645 10.7551 12.7133 10.884Z" fill="#007BFF"/>
</svg>
