<svg width="31" height="30" viewBox="0 0 31 30" fill="none" xmlns="http://www.w3.org/2000/svg">
<path d="M3.625 11.6735C3.625 7.67786 6.66881 4.375 10.505 4.375C12.4854 4.375 14.256 5.26233 15.5002 6.66665C16.7468 5.26198 18.5249 4.375 20.495 4.375C24.3312 4.375 27.375 7.67786 27.375 11.6735C27.375 12.5637 27.2563 13.4699 27.0339 14.375H23.2589L21.8735 12.9896C21.421 12.5372 20.6583 12.6609 20.3721 13.2333L19.0788 15.8199L18.0778 14.8189C17.6681 14.4093 16.9887 14.4655 16.652 14.9369L14.5472 17.8836L13.1668 11.9017C12.9737 11.065 11.8508 10.9066 11.4338 11.6572L9.17172 15.729L8.09119 14.2883C7.74888 13.8318 7.08169 13.7844 6.67828 14.1878L5.86612 15H4.03536C3.76789 13.9322 3.625 12.8205 3.625 11.6735Z" fill="#007BFF"/>
<path d="M4.41152 16.25C6.10499 21.0562 10.345 24.8335 15.2784 26.7038C15.4212 26.7579 15.5788 26.7579 15.7216 26.7038C18.9662 25.4738 21.8691 23.1841 23.9624 20.4877C25.1374 18.9742 26.0701 17.3155 26.6614 15.625H23.1294C22.8808 15.625 22.6423 15.5262 22.4665 15.3504L21.2962 14.1801L20.0029 16.7667C19.7167 17.3391 18.954 17.4628 18.5015 17.0104L17.4548 15.9636L15.1615 19.1742C14.6921 19.8314 13.6667 19.627 13.4851 18.8401L12.1316 12.975L10.0304 16.7573C9.70052 17.351 8.86839 17.4079 8.46086 16.8645L7.30738 15.3265L6.65847 15.9754C6.48266 16.1512 6.2442 16.25 5.99556 16.25H4.41152Z" fill="#007BFF"/>
</svg>
