<svg width="33" height="34" viewBox="0 0 33 34" fill="none" xmlns="http://www.w3.org/2000/svg">
<path fill-rule="evenodd" clip-rule="evenodd" d="M8.25 10.8125C7.57424 10.8125 7.00535 11.0419 6.60371 11.4436C6.20854 11.8387 6.01562 12.3612 6.01562 12.875C6.01562 13.3888 6.20854 13.9113 6.60371 14.3065C7.00535 14.7081 7.57424 14.9375 8.25 14.9375L11.0007 14.9375C11.3828 14.9375 11.6875 15.2433 11.6875 15.6206V28.6875C11.6875 29.3633 11.9169 29.9322 12.3186 30.3338C12.7137 30.729 13.2362 30.9219 13.75 30.9219C14.2638 30.9219 14.7863 30.729 15.1814 30.3338C15.5831 29.9322 15.8125 29.3633 15.8125 28.6875C15.8125 27.6467 15.8136 26.1469 15.9783 24.9112C16.0616 24.2868 16.1798 23.7888 16.3293 23.4649C16.4077 23.2951 16.4676 23.2249 16.5 23.1975C16.5324 23.2249 16.5923 23.2951 16.6707 23.4649C16.8202 23.7888 16.9384 24.2868 17.0217 24.9112C17.1864 26.1469 17.1875 27.6467 17.1875 28.6875C17.1875 29.3633 17.4169 29.9322 17.8186 30.3338C18.2137 30.729 18.7362 30.9219 19.25 30.9219C19.7638 30.9219 20.2863 30.729 20.6814 30.3338C21.0831 29.9322 21.3125 29.3633 21.3125 28.6875V15.625C21.3125 15.2453 21.6203 14.9375 22 14.9375H24.75C25.4258 14.9375 25.9947 14.7081 26.3963 14.3064C26.7915 13.9113 26.9844 13.3888 26.9844 12.875C26.9844 12.3612 26.7915 11.8387 26.3963 11.4436C25.9947 11.0419 25.4258 10.8125 24.75 10.8125H8.25ZM16.527 23.1818C16.527 23.1818 16.5233 23.1848 16.5153 23.1863C16.5228 23.1817 16.527 23.1818 16.527 23.1818ZM16.4847 23.1863C16.4767 23.1848 16.473 23.1818 16.473 23.1818C16.473 23.1818 16.4772 23.1817 16.4847 23.1863Z" fill="#007BFF"/>
<path d="M16.5 3.25C14.6015 3.25 13.0625 4.78902 13.0625 6.6875C13.0625 8.58598 14.6015 10.125 16.5 10.125C18.3985 10.125 19.9375 8.58598 19.9375 6.6875C19.9375 4.78902 18.3985 3.25 16.5 3.25Z" fill="#007BFF"/>
</svg>
