<svg width="35" height="36" viewBox="0 0 35 36" fill="none" xmlns="http://www.w3.org/2000/svg">
<path d="M12.3958 5.604C11.4272 5.604 10.6056 6.23359 10.3179 7.10587C8.1951 7.40679 6.5625 9.23141 6.5625 11.4373V17.9998C6.5625 22.1956 9.78414 25.6389 13.8887 25.991C14.2625 29.7119 17.6088 31.6699 20.7598 31.7625C22.4499 31.8123 24.1802 31.3423 25.5025 30.2663C26.8439 29.1748 27.7083 27.5042 27.7083 25.2915V19.4582H26.25V25.2915C26.25 27.0893 25.565 28.3353 24.5821 29.1351C23.5802 29.9504 22.2116 30.3463 20.8027 30.3048C18.1662 30.2273 15.717 28.6754 15.3577 25.9838C19.4242 25.5942 22.6042 22.1684 22.6042 17.9998V11.4373C22.6042 9.51105 21.3592 7.87552 19.6301 7.29144C19.4039 6.3243 18.5361 5.604 17.5 5.604C16.2919 5.604 15.3125 6.58338 15.3125 7.7915C15.3125 8.99963 16.2919 9.979 17.5 9.979C18.3496 9.979 19.0861 9.49462 19.4484 8.78695C20.4504 9.24864 21.1458 10.2618 21.1458 11.4373V17.9998C21.1458 21.6242 18.2077 24.5623 14.5833 24.5623C10.959 24.5623 8.02083 21.6242 8.02083 17.9998V11.4373C8.02083 10.0262 9.02296 8.84914 10.3544 8.57898C10.6705 9.398 11.4653 9.979 12.3958 9.979C13.604 9.979 14.5833 8.99963 14.5833 7.7915C14.5833 6.58338 13.604 5.604 12.3958 5.604Z" fill="#007BFF"/>
<path fill-rule="evenodd" clip-rule="evenodd" d="M24.0625 17.2707C24.0625 15.6598 25.3683 14.354 26.9792 14.354C28.59 14.354 29.8958 15.6598 29.8958 17.2707C29.8958 18.8815 28.59 20.1873 26.9792 20.1873C25.3683 20.1873 24.0625 18.8815 24.0625 17.2707ZM26.9792 17.9998C27.3819 17.9998 27.7083 17.6734 27.7083 17.2707C27.7083 16.868 27.3819 16.5415 26.9792 16.5415C26.5765 16.5415 26.25 16.868 26.25 17.2707C26.25 17.6734 26.5765 17.9998 26.9792 17.9998Z" fill="#007BFF"/>
</svg>
