<svg width="33" height="34" viewBox="0 0 33 34" fill="none" xmlns="http://www.w3.org/2000/svg">
<path fill-rule="evenodd" clip-rule="evenodd" d="M22.5588 5.81503C22.2412 4.78521 21.3374 3.9375 19.9392 3.9375C19.2946 3.9375 18.7553 4.07218 18.3232 4.34357C17.8863 4.61795 17.6139 4.99757 17.4491 5.39003C17.1744 6.044 17.1831 6.79979 17.188 7.23391C17.1886 7.28577 17.1892 7.33304 17.1892 7.375V30.0618C17.1892 30.0978 17.1919 30.1338 17.1973 30.1682C17.2446 30.475 17.4947 30.7148 17.8064 30.7464C17.8295 30.7488 17.853 30.75 17.8767 30.75C19.3294 30.75 20.3883 30.0874 20.9266 29.1208L20.9434 29.0902C21.4041 29.1955 21.8868 29.1936 22.3595 29.0901C22.921 28.9672 23.4527 28.7047 23.9117 28.3339C24.3708 27.963 24.7484 27.4912 25.0136 26.9596C25.2582 26.4695 25.403 25.937 25.4337 25.4005C25.9245 25.322 26.3943 25.1411 26.8122 24.8686C27.3013 24.5498 27.7043 24.1153 27.9856 23.6037C28.2669 23.092 28.4178 22.519 28.4249 21.9353C28.432 21.3515 28.2951 20.7751 28.0263 20.2571C27.888 19.9906 27.7169 19.7438 27.5179 19.5221C27.8333 19.2394 28.0952 18.8951 28.2913 18.5105C28.5379 18.0268 28.6754 17.4892 28.6936 16.9439C28.7118 16.3985 28.6103 15.8561 28.3928 15.3645C28.1753 14.8725 27.8467 14.4429 27.4289 14.1205C27.2452 13.9788 27.0473 13.8601 26.8389 13.7666C27.1186 13.2592 27.3134 12.6979 27.4157 12.1098C27.5563 11.3015 27.5193 10.461 27.3096 9.66057C27.0999 8.86014 26.7221 8.11756 26.204 7.49995C25.6857 6.88214 25.0396 6.40476 24.3169 6.12024C23.7522 5.89791 23.1567 5.79985 22.5642 5.83285L22.5588 5.81503ZM23.5297 17.8714C24.0765 17.8863 24.6108 17.7549 25.0808 17.4835C25.4096 17.2935 25.5221 16.8731 25.3322 16.5443C25.1423 16.2155 24.7218 16.1029 24.393 16.2928C24.15 16.4332 23.8679 16.5051 23.5673 16.4969C23.2656 16.4887 22.9506 16.3996 22.6522 16.2268C22.3536 16.0538 22.0849 15.8045 21.8746 15.4978C21.6644 15.1911 21.5229 14.842 21.462 14.484C21.3983 14.1097 21.0432 13.8579 20.6689 13.9215C20.2946 13.9852 20.0428 14.3403 20.1065 14.7146C20.2012 15.2714 20.4193 15.8066 20.7405 16.2752C21.0617 16.7438 21.4801 17.1369 21.9632 17.4167C22.4465 17.6966 22.9839 17.8565 23.5297 17.8714ZM21.0366 19.4165C21.1763 19.0634 21.0034 18.6639 20.6504 18.5242C20.2973 18.3844 19.8979 18.5574 19.7581 18.9104C19.6287 19.2374 19.5851 19.5916 19.6401 19.9403C19.6951 20.2895 19.8459 20.6132 20.0749 20.8816C20.3034 21.1492 20.5988 21.3493 20.9281 21.4715C21.2841 21.6037 21.6798 21.4223 21.8119 21.0663C21.9441 20.7103 21.7626 20.3147 21.4067 20.1825C21.284 20.137 21.1882 20.0679 21.1207 19.9889C21.0539 19.9106 21.0132 19.8208 20.9983 19.7263C20.9834 19.6313 20.9935 19.5253 21.0366 19.4165ZM23.9249 10.5559C23.7509 10.3052 23.5131 10.1058 23.2312 9.98231C22.8834 9.82994 22.478 9.98836 22.3256 10.3361C22.1732 10.6839 22.3316 11.0894 22.6794 11.2417C22.7214 11.2601 22.7617 11.2915 22.7953 11.3399C22.8295 11.3891 22.8575 11.4577 22.867 11.5443C22.8765 11.6312 22.8664 11.7289 22.8322 11.8268C22.798 11.9248 22.7431 12.0134 22.6747 12.0843C22.6063 12.1551 22.531 12.2014 22.4604 12.2261C22.102 12.3515 21.9132 12.7438 22.0386 13.1021C22.1641 13.4605 22.5563 13.6493 22.9147 13.5239C23.1995 13.4242 23.455 13.2555 23.6635 13.0397C23.872 12.8239 24.0316 12.5632 24.1304 12.2799C24.2293 11.9967 24.2666 11.6933 24.2338 11.3945C24.201 11.0954 24.0983 10.8058 23.9249 10.5559ZM20.1643 25.5739C20.3041 25.2208 20.1312 24.8213 19.7781 24.6816C19.4251 24.5418 19.0256 24.7148 18.8859 25.0678C18.7564 25.3948 18.7129 25.7491 18.7678 26.0978C18.8229 26.4469 18.9736 26.7706 19.2026 27.039C19.4311 27.3067 19.7266 27.5067 20.0559 27.629C20.4118 27.7611 20.8075 27.5797 20.9397 27.2237C21.0718 26.8678 20.8904 26.4721 20.5344 26.3399C20.4117 26.2944 20.3159 26.2253 20.2485 26.1463C20.1816 26.068 20.141 25.9782 20.1261 25.8837C20.1111 25.7887 20.1212 25.6827 20.1643 25.5739ZM21.3131 23.8976C21.297 23.5182 21.5915 23.1977 21.9709 23.1816C22.2954 23.1678 22.5948 23.081 22.8451 22.9374C23.0948 22.7941 23.2885 22.5988 23.4168 22.3729C23.5449 22.1475 23.6084 21.8908 23.5993 21.622C23.5866 21.2425 23.8839 20.9245 24.2634 20.9118C24.6429 20.899 24.9608 21.1963 24.9736 21.5758C24.991 22.0943 24.8677 22.6026 24.6123 23.0521C24.3572 23.5013 23.9826 23.87 23.5294 24.13C23.077 24.3896 22.5608 24.5328 22.0291 24.5553C21.6498 24.5714 21.3292 24.2769 21.3131 23.8976ZM20.8109 8.26265C21.1885 8.2231 21.4626 7.88491 21.423 7.50728C21.3835 7.12964 21.0453 6.85558 20.6677 6.89513C20.3179 6.93177 19.9837 7.05715 19.7001 7.26728C19.4161 7.47767 19.1989 7.76114 19.067 8.08838C18.9355 8.41482 18.895 8.7693 18.939 9.1178C18.9867 9.49449 19.3307 9.76125 19.7073 9.71361C20.084 9.66597 20.3508 9.32198 20.3032 8.94529C20.2867 8.81547 20.3036 8.69853 20.3424 8.60221C20.3809 8.5067 20.4416 8.42911 20.5186 8.37213C20.5958 8.3149 20.6944 8.27485 20.8109 8.26265Z" fill="#007BFF"/>
<path fill-rule="evenodd" clip-rule="evenodd" d="M5.57298 14.1205C5.75668 13.9788 5.95457 13.8601 6.16293 13.7666C5.88324 13.2592 5.68849 12.6979 5.58617 12.1098C5.44556 11.3015 5.48257 10.461 5.69227 9.66057C5.90197 8.86014 6.27975 8.11756 6.79784 7.49995C7.31611 6.88214 7.96221 6.40476 8.6849 6.12024C9.24964 5.89791 9.84517 5.79985 10.4377 5.83285C10.75 4.79629 11.6549 3.9375 13.0627 3.9375C13.7073 3.9375 14.2465 4.07218 14.6787 4.34357C15.1156 4.61795 15.3879 4.99757 15.5528 5.39003C15.8274 6.044 15.8188 6.79979 15.8138 7.23391C15.8132 7.28559 15.8127 7.33317 15.8127 7.375V30.0611C15.8127 30.4408 15.5049 30.75 15.1252 30.75C13.6725 30.75 12.6135 30.0874 12.0752 29.1208L12.0584 29.0902C11.5977 29.1955 11.115 29.1936 10.6424 29.0901C10.0809 28.9672 9.54921 28.7047 9.09014 28.3339C8.63107 27.963 8.2535 27.4912 7.98824 26.9596C7.74366 26.4695 7.59885 25.937 7.56815 25.4005C7.0774 25.322 6.60758 25.1411 6.18961 24.8686C5.70055 24.5498 5.29754 24.1153 5.01625 23.6037C4.73496 23.092 4.58405 22.519 4.57692 21.9353C4.5698 21.3515 4.7067 20.7751 4.97557 20.2571C5.11388 19.9906 5.2849 19.7439 5.48391 19.5221C5.16858 19.2394 4.90661 18.8951 4.7105 18.5105C4.46392 18.0268 4.32641 17.4892 4.30823 16.9439C4.29004 16.3985 4.39157 15.8561 4.60899 15.3645C4.82653 14.8725 5.15517 14.4429 5.57298 14.1205ZM10.8585 17.5818C10.3138 17.6329 9.77199 17.5371 9.28514 17.2973C8.94451 17.1295 8.80438 16.7174 8.97214 16.3768C9.1399 16.0361 9.55203 15.896 9.89265 16.0638C10.1445 16.1878 10.4307 16.2409 10.7301 16.2128C11.0306 16.1847 11.339 16.075 11.6253 15.8828C11.9119 15.6905 12.1635 15.424 12.353 15.104C12.5425 14.7841 12.6606 14.4265 12.6977 14.0652C12.7348 13.7039 12.6894 13.3564 12.5738 13.0527C12.4388 12.6978 12.6171 12.3007 12.972 12.1657C13.3268 12.0307 13.724 12.2089 13.859 12.5638C14.0552 13.0796 14.1232 13.6438 14.0655 14.2057C14.0078 14.7675 13.8256 15.316 13.5361 15.8048C13.2465 16.2936 12.8551 16.7135 12.3915 17.0246C11.9277 17.3358 11.4021 17.5309 10.8585 17.5818ZM13.5356 25.1546C13.9153 25.1542 14.2228 24.8461 14.2224 24.4664C14.222 24.0867 13.9138 23.7792 13.5341 23.7796C13.002 23.7802 12.4803 23.902 12.0175 24.1427C11.554 24.3838 11.1646 24.7367 10.8911 25.1749C10.6174 25.6135 10.4732 26.1163 10.4692 26.6351C10.4663 27.0148 10.7717 27.3249 11.1514 27.3279C11.5311 27.3308 11.8412 27.0254 11.8442 26.6457C11.8462 26.3768 11.9203 26.1229 12.0576 25.9029C12.1951 25.6826 12.3967 25.4953 12.652 25.3625C12.908 25.2294 13.2108 25.155 13.5356 25.1546ZM7.70952 19.9838C7.71381 20.3635 8.02506 20.6678 8.40473 20.6635C8.52182 20.6622 8.6244 20.6906 8.70774 20.7385C8.79072 20.7863 8.86 20.8563 8.90925 20.9468C8.9589 21.038 8.98917 21.1522 8.98784 21.283C8.98398 21.6627 9.28864 21.9736 9.66832 21.9775C10.048 21.9813 10.3589 21.6767 10.3628 21.297C10.3663 20.9457 10.2851 20.5983 10.1168 20.2892C9.94811 19.9794 9.69967 19.7228 9.3933 19.5466C9.0873 19.3706 8.74093 19.2846 8.38923 19.2886C8.00956 19.2929 7.70524 19.6041 7.70952 19.9838ZM13.6175 21.7324C13.9643 21.5779 14.1204 21.1716 13.9659 20.8247C13.8115 20.4778 13.4052 20.3218 13.0583 20.4762C12.7938 20.5939 12.5627 20.7778 12.3926 21.0168C12.2222 21.2561 12.1236 21.5358 12.1036 21.8274C12.0837 22.1181 12.1426 22.4058 12.265 22.6657C12.4268 23.0091 12.8365 23.1564 13.18 22.9946C13.5234 22.8328 13.6707 22.4232 13.5089 22.0797C13.4804 22.0192 13.4724 21.9647 13.4754 21.9215C13.4783 21.8792 13.4918 21.8437 13.5127 21.8143C13.5339 21.7846 13.5674 21.7547 13.6175 21.7324ZM9.18274 9.73689C9.4783 9.66082 9.7885 9.66529 10.0826 9.75603C10.4455 9.86796 10.6488 10.2528 10.5369 10.6156C10.425 10.9785 10.0401 11.1819 9.6773 11.0699C9.63353 11.0564 9.58247 11.0538 9.52543 11.0685C9.4674 11.0834 9.40136 11.117 9.33758 11.1764C9.27359 11.2359 9.21742 11.3165 9.1793 11.413C9.14119 11.5094 9.12483 11.6125 9.13034 11.7108C9.13585 11.8091 9.16258 11.8933 9.19985 11.9582C9.38915 12.2873 9.27579 12.7076 8.94665 12.8969C8.6175 13.0862 8.19722 12.9728 8.00793 12.6437C7.85747 12.3821 7.7743 12.0874 7.7575 11.7878C7.7407 11.4882 7.79028 11.1866 7.90055 10.9076C8.0108 10.6286 8.18086 10.3745 8.40089 10.1698C8.62114 9.96484 8.88817 9.81269 9.18274 9.73689ZM12.4358 8.21998C12.0582 8.18043 11.7841 7.84223 11.8236 7.4646C11.8632 7.08697 12.2014 6.81291 12.579 6.85246C12.88 6.88399 13.1689 6.99205 13.4148 7.17421C13.661 7.35662 13.8491 7.6023 13.9631 7.88531C14.0768 8.16751 14.1114 8.47265 14.0736 8.7711C14.026 9.14779 13.682 9.41455 13.3053 9.36691C12.9286 9.31928 12.6619 8.97529 12.7095 8.59859C12.7196 8.51883 12.7087 8.45122 12.6877 8.39914C12.6671 8.34786 12.6354 8.30806 12.5963 8.27906C12.5568 8.2498 12.5035 8.22706 12.4358 8.21998Z" fill="#007BFF"/>
</svg>
