<svg width="35" height="36" viewBox="0 0 35 36" fill="none" xmlns="http://www.w3.org/2000/svg">
<path fill-rule="evenodd" clip-rule="evenodd" d="M17.3975 3.41651C16.1396 3.41642 15.3959 3.41637 14.7612 3.54261C12.158 4.06043 10.1229 6.09545 9.60511 8.69873C9.47887 9.3334 9.47892 10.0771 9.47901 11.335L9.47901 20.1873C9.47901 23.5653 12.0311 26.3471 15.3123 26.7098V26.7498C15.3123 27.958 16.2917 28.9373 17.4998 28.9373C18.708 28.9373 19.6873 27.958 19.6873 26.7498V26.7098C22.9686 26.3471 25.5207 23.5653 25.5207 20.1873L25.5207 11.335C25.5208 10.0771 25.5208 9.3334 25.3946 8.69873C24.8768 6.09545 22.8417 4.06043 20.2385 3.54261C19.6038 3.41637 18.8601 3.41642 17.6022 3.41651H17.3975ZM17.4998 27.479C17.0971 27.479 16.7707 27.1526 16.7707 26.7498H18.229C18.229 27.1526 17.9026 27.479 17.4998 27.479ZM24.0623 14.354H10.9373V11.4373C10.9373 10.0472 10.9409 9.45854 11.0354 8.98324C11.4382 6.95846 13.021 5.37567 15.0457 4.97292C15.521 4.87838 16.1097 4.87485 17.4998 4.87485C18.89 4.87485 19.4787 4.87838 19.954 4.97292C21.9787 5.37567 23.5615 6.95846 23.9643 8.98324C24.0588 9.45854 24.0623 10.0472 24.0623 11.4373V14.354Z" fill="#007BFF"/>
<path fill-rule="evenodd" clip-rule="evenodd" d="M17.5002 27.479C17.9029 27.479 18.2293 27.8055 18.2293 28.2082C18.2293 29.2388 18.404 30.0064 18.6801 30.4896C18.9337 30.9333 19.256 31.1248 19.6877 31.1248C20.0904 31.1248 20.4168 31.4513 20.4168 31.854C20.4168 32.2567 20.0904 32.5832 19.6877 32.5832C18.661 32.5832 17.8896 32.0455 17.4139 31.2132C16.9609 30.4204 16.771 29.3651 16.771 28.2082C16.771 27.8055 17.0975 27.479 17.5002 27.479Z" fill="#007BFF"/>
</svg>
