<svg width="25" height="25" viewBox="0 0 25 25" fill="none" xmlns="http://www.w3.org/2000/svg">
<path d="M7.19994 14.2384C7.8834 14.2384 8.43744 13.6843 8.43744 13.0009C8.43744 12.3174 7.8834 11.7634 7.19994 11.7634C6.51649 11.7634 5.96244 12.3174 5.96244 13.0009C5.96244 13.6843 6.51649 14.2384 7.19994 14.2384Z" fill="#9FA19E"/>
<path d="M7.19994 19.1882C7.8834 19.1882 8.43744 18.6341 8.43744 17.9507C8.43744 17.2672 7.8834 16.7132 7.19994 16.7132C6.51649 16.7132 5.96244 17.2672 5.96244 17.9507C5.96244 18.6341 6.51649 19.1882 7.19994 19.1882Z" fill="#9FA19E"/>
<path d="M18.3375 13.0009C18.3375 13.6843 17.7835 14.2384 17.1 14.2384C16.4165 14.2384 15.8625 13.6843 15.8625 13.0009C15.8625 12.3174 16.4165 11.7634 17.1 11.7634C17.7835 11.7634 18.3375 12.3174 18.3375 13.0009Z" fill="#9FA19E"/>
<path d="M17.1 19.1882C17.7835 19.1882 18.3375 18.6341 18.3375 17.9507C18.3375 17.2672 17.7835 16.7132 17.1 16.7132C16.4165 16.7132 15.8625 17.2672 15.8625 17.9507C15.8625 18.6341 16.4165 19.1882 17.1 19.1882Z" fill="#9FA19E"/>
<path d="M13.3876 13.0009C13.3876 13.6843 12.8335 14.2384 12.1501 14.2384C11.4666 14.2384 10.9126 13.6843 10.9126 13.0009C10.9126 12.3174 11.4666 11.7634 12.1501 11.7634C12.8335 11.7634 13.3876 12.3174 13.3876 13.0009Z" fill="#9FA19E"/>
<path d="M12.1501 19.1882C12.8335 19.1882 13.3876 18.6341 13.3876 17.9507C13.3876 17.2672 12.8335 16.7132 12.1501 16.7132C11.4666 16.7132 10.9126 17.2672 10.9126 17.9507C10.9126 18.6341 11.4666 19.1882 12.1501 19.1882Z" fill="#9FA19E"/>
<path fill-rule="evenodd" clip-rule="evenodd" d="M7.20005 0C7.75924 0 8.21255 0.453312 8.21255 1.0125V1.26642C9.15615 1.2376 10.2358 1.2376 11.476 1.23761H12.824C14.0642 1.2376 15.1438 1.2376 16.0874 1.26642V1.0125C16.0874 0.453312 16.5408 0 17.0999 0C17.6591 0 18.1124 0.453312 18.1124 1.0125V1.4067C19.2513 1.55015 20.2119 1.82382 21.064 2.37543C21.9036 2.91894 22.6187 3.63401 23.1622 4.47363C23.7736 5.41806 24.0435 6.49579 24.1731 7.80169C24.3 9.07984 24.3 10.681 24.3 12.7137V12.824C24.3 14.8567 24.3 16.4579 24.1731 17.736C24.0435 19.0419 23.7736 20.1197 23.1622 21.0641C22.6187 21.9037 21.9036 22.6188 21.064 23.1623C20.1195 23.7737 19.0418 24.0436 17.7359 24.1733C16.4578 24.3001 14.8567 24.3001 12.824 24.3001H11.476C9.4433 24.3001 7.8422 24.3001 6.56408 24.1733C5.25818 24.0436 4.18045 23.7737 3.23602 23.1623C2.3964 22.6188 1.68133 21.9037 1.13782 21.0641C0.526445 20.1197 0.256497 19.0419 0.126862 17.736C-1.81351e-05 16.4579 -1.00107e-05 14.8568 1.82216e-07 12.8241V12.7137C-1.00107e-05 10.6809 -1.81351e-05 9.07983 0.126862 7.80169C0.256497 6.49579 0.526445 5.41806 1.13782 4.47363C1.68133 3.63401 2.3964 2.91894 3.23602 2.37543C4.08813 1.82382 5.04874 1.55015 6.18755 1.4067V1.0125C6.18755 0.453312 6.64087 0 7.20005 0ZM16.0874 3.29227V3.4875C16.0874 4.04669 16.5408 4.5 17.0999 4.5C17.6591 4.5 18.1124 4.04669 18.1124 3.4875V3.45094C18.9369 3.57622 19.5019 3.77646 19.9636 4.07534C20.5633 4.46356 21.074 4.97433 21.4623 5.57405C21.7407 6.00418 21.9336 6.52398 22.0599 7.25968C21.6565 7.21574 21.1656 7.16743 20.5872 7.11923C18.7031 6.96222 15.8907 6.80636 12.15 6.80636C8.40933 6.80636 5.59691 6.96222 3.71279 7.11923C3.13438 7.16743 2.64348 7.21574 2.24008 7.25968C2.36645 6.52398 2.55928 6.00418 2.83773 5.57405C3.22595 4.97433 3.73672 4.46356 4.33644 4.07534C4.79813 3.77646 5.36314 3.57622 6.18755 3.45094V3.4875C6.18755 4.04669 6.64087 4.5 7.20005 4.5C7.75924 4.5 8.21255 4.04669 8.21255 3.4875V3.29227C9.12548 3.26307 10.2097 3.26261 11.5313 3.26261H12.7687C14.0903 3.26261 15.1745 3.26307 16.0874 3.29227ZM22.2409 9.31824C21.7995 9.2659 21.1922 9.20167 20.419 9.13724C18.5907 8.98487 15.8343 8.83136 12.15 8.83136C8.46566 8.83136 5.70933 8.98487 3.88095 9.13724C3.10778 9.20167 2.5005 9.2659 2.05913 9.31823C2.02551 10.2582 2.025 11.3831 2.025 12.7689C2.025 14.8689 2.02617 16.3696 2.14196 17.536C2.25614 18.6862 2.47383 19.4015 2.83773 19.9637C3.22595 20.5634 3.73672 21.0742 4.33644 21.4624C4.89859 21.8263 5.61389 22.044 6.76411 22.1582C7.93055 22.2739 9.43124 22.2751 11.5313 22.2751H12.7687C14.8688 22.2751 16.3694 22.2739 17.5359 22.1582C18.6861 22.044 19.4014 21.8263 19.9636 21.4624C20.5633 21.0742 21.074 20.5634 21.4623 19.9637C21.8262 19.4015 22.0439 18.6862 22.158 17.536C22.2738 16.3696 22.275 14.8689 22.275 12.7689C22.275 11.3831 22.2745 10.2582 22.2409 9.31824Z" fill="#9FA19E"/>
</svg>
