<svg width="23" height="23" viewBox="0 0 23 23" fill="none" xmlns="http://www.w3.org/2000/svg">
<path d="M11.3999 4.40002V11.4H16.6499M21.8999 11.4C21.8999 12.7789 21.6283 14.1443 21.1006 15.4182C20.573 16.6921 19.7995 17.8496 18.8245 18.8246C17.8495 19.7997 16.692 20.5731 15.4181 21.1008C14.1442 21.6284 12.7788 21.9 11.3999 21.9C10.021 21.9 8.65564 21.6284 7.38173 21.1008C6.10781 20.5731 4.9503 19.7997 3.97528 18.8246C3.00027 17.8496 2.22684 16.6921 1.69917 15.4182C1.17149 14.1443 0.899902 12.7789 0.899902 11.4C0.899902 8.61525 2.00615 5.94454 3.97528 3.9754C5.94441 2.00627 8.61513 0.900024 11.3999 0.900024C14.1847 0.900024 16.8554 2.00627 18.8245 3.9754C20.7937 5.94454 21.8999 8.61525 21.8999 11.4Z" stroke="#9FA19E" stroke-width="1.8" stroke-linecap="round" stroke-linejoin="round"/>
</svg>
