<svg width="25" height="24" viewBox="0 0 25 24" fill="none" xmlns="http://www.w3.org/2000/svg">
<path fill-rule="evenodd" clip-rule="evenodd" d="M5.71938 9.1985e-07L5.59698 9.1985e-07C4.63266 -2.42168e-05 3.82 -4.54024e-05 3.1662 0.0743738C2.47617 0.152917 1.83163 0.32588 1.27752 0.763785C1.10059 0.903608 0.938361 1.05983 0.793161 1.23021C0.338413 1.7638 0.158798 2.38446 0.0772342 3.04893C-4.71486e-05 3.67852 -2.51482e-05 4.46103 9.55228e-07 5.38964L9.55228e-07 5.50756C-2.51482e-05 6.43616 -4.71486e-05 7.21873 0.0772342 7.84832C0.158798 8.51279 0.338413 9.13345 0.79316 9.66704C0.938362 9.83742 1.10059 9.99364 1.27752 10.1335C1.83163 10.5714 2.47617 10.7443 3.1662 10.8229C3.82 10.8973 4.6326 10.8973 5.59692 10.8972H5.71939C6.68371 10.8973 7.49637 10.8973 8.15017 10.8229C8.8402 10.7443 9.48473 10.5714 10.0388 10.1335C10.2158 9.99364 10.378 9.83742 10.5232 9.66704C10.978 9.13345 11.1576 8.51279 11.2391 7.84832C11.3164 7.21873 11.3164 6.43622 11.3164 5.50762V5.38968C11.3164 4.46108 11.3164 3.67852 11.2391 3.04893C11.1576 2.38446 10.978 1.7638 10.5232 1.23021C10.378 1.05983 10.2158 0.903608 10.0388 0.763785C9.48473 0.32588 8.8402 0.152917 8.15017 0.0743738C7.49637 -4.54024e-05 6.6837 -2.42168e-05 5.71938 9.1985e-07ZM3.40594 2.02748C3.9257 1.96832 4.61683 1.96671 5.65818 1.96671C6.69954 1.96671 7.39067 1.96832 7.91043 2.02748C8.40762 2.08407 8.61326 2.18138 8.74319 2.28407C8.81671 2.34217 8.88412 2.40708 8.94445 2.47787C9.05109 2.60299 9.15214 2.80102 9.21091 3.2798C9.27234 3.7803 9.27402 4.44584 9.27402 5.44863C9.27402 6.45141 9.27234 7.11695 9.21091 7.61745C9.15214 8.09624 9.05109 8.29426 8.94445 8.41938C8.88412 8.49017 8.81671 8.55509 8.74319 8.61318C8.61326 8.71587 8.40762 8.81318 7.91043 8.86977C7.39067 8.92893 6.69954 8.93054 5.65818 8.93054C4.61683 8.93054 3.9257 8.92893 3.40594 8.86977C2.90874 8.81318 2.70311 8.71587 2.57317 8.61318C2.49966 8.55509 2.43225 8.49017 2.37191 8.41938C2.26528 8.29426 2.16423 8.09624 2.10546 7.61745C2.04402 7.11695 2.04235 6.45141 2.04235 5.44863C2.04235 4.44584 2.04402 3.7803 2.10546 3.2798C2.16423 2.80102 2.26528 2.60299 2.37191 2.47787C2.43225 2.40708 2.49966 2.34217 2.57317 2.28407C2.70311 2.18138 2.90874 2.08407 3.40594 2.02748Z" fill="#9FA19E"/>
<path fill-rule="evenodd" clip-rule="evenodd" d="M18.703 9.1985e-07L18.5806 9.1985e-07C17.6163 -2.40918e-05 16.8036 -4.51717e-05 16.1498 0.0743739C15.4598 0.152917 14.8153 0.32588 14.2611 0.763785C14.0842 0.903608 13.922 1.05983 13.7768 1.23021C13.322 1.7638 13.1424 2.38446 13.0609 3.04893C12.9836 3.67853 12.9836 4.46104 12.9836 5.38966V5.50757C12.9836 6.43618 12.9836 7.21873 13.0609 7.84832C13.1424 8.51279 13.322 9.13345 13.7768 9.66704C13.922 9.83742 14.0842 9.99364 14.2611 10.1335C14.8153 10.5714 15.4598 10.7443 16.1498 10.8229C16.8036 10.8973 17.6162 10.8973 18.5806 10.8972H18.703C19.6674 10.8973 20.48 10.8973 21.1338 10.8229C21.8238 10.7443 22.4683 10.5714 23.0225 10.1335C23.1994 9.99364 23.3616 9.83742 23.5068 9.66704C23.9616 9.13346 24.1412 8.51279 24.2227 7.84832C24.3 7.21871 24.3 6.43617 24.3 5.50752V5.38973C24.3 4.46108 24.3 3.67854 24.2227 3.04893C24.1412 2.38446 23.9616 1.7638 23.5068 1.23021C23.3616 1.05983 23.1994 0.903608 23.0225 0.763785C22.4683 0.32588 21.8238 0.152917 21.1338 0.0743739C20.48 -4.51717e-05 19.6673 -2.40918e-05 18.703 9.1985e-07ZM16.3896 2.02748C16.9093 1.96832 17.6004 1.96671 18.6418 1.96671C19.6832 1.96671 20.3743 1.96832 20.894 2.02748C21.3912 2.08407 21.5969 2.18138 21.7268 2.28407C21.8003 2.34217 21.8677 2.40708 21.9281 2.47787C22.0347 2.60299 22.1358 2.80102 22.1945 3.2798C22.256 3.7803 22.2576 4.44584 22.2576 5.44863C22.2576 6.45141 22.256 7.11695 22.1945 7.61745C22.1358 8.09624 22.0347 8.29426 21.9281 8.41938C21.8677 8.49017 21.8003 8.55509 21.7268 8.61318C21.5969 8.71587 21.3912 8.81318 20.894 8.86977C20.3743 8.92893 19.6832 8.93054 18.6418 8.93054C17.6004 8.93054 16.9093 8.92893 16.3896 8.86977C15.8924 8.81318 15.6867 8.71587 15.5568 8.61318C15.4833 8.55509 15.4159 8.49017 15.3555 8.41938C15.2489 8.29426 15.1478 8.09624 15.0891 7.61745C15.0276 7.11695 15.026 6.45141 15.026 5.44863C15.026 4.44584 15.0276 3.7803 15.0891 3.2798C15.1478 2.80102 15.2489 2.60299 15.3555 2.47787C15.4159 2.40708 15.4833 2.34217 15.5568 2.28407C15.6867 2.18138 15.8924 2.08407 16.3896 2.02748Z" fill="#9FA19E"/>
<path fill-rule="evenodd" clip-rule="evenodd" d="M5.71939 12.5028H5.59697C4.63264 12.5027 3.82 12.5027 3.1662 12.5771C2.47617 12.6557 1.83163 12.8286 1.27752 13.2665C1.10059 13.4064 0.938362 13.5626 0.793161 13.733C0.338413 14.2666 0.158798 14.8872 0.0772343 15.5517C-4.6909e-05 16.1813 -2.50184e-05 16.9638 9.55228e-07 17.8924L9.55228e-07 18.0103C-2.50184e-05 18.9389 -4.6909e-05 19.7215 0.0772343 20.3511C0.158798 21.0155 0.338413 21.6362 0.793161 22.1698C0.938362 22.3402 1.10059 22.4964 1.27752 22.6362C1.83163 23.0741 2.47617 23.2471 3.1662 23.3256C3.82002 23.4 4.63266 23.4 5.59702 23.4H5.71934C6.68371 23.4 7.49635 23.4 8.15017 23.3256C8.8402 23.2471 9.48473 23.0741 10.0388 22.6362C10.2158 22.4964 10.378 22.3402 10.5232 22.1698C10.978 21.6362 11.1576 21.0155 11.2391 20.3511C11.3164 19.7215 11.3164 18.939 11.3164 18.0104V17.8924C11.3164 16.9638 11.3164 16.1813 11.2391 15.5517C11.1576 14.8872 10.978 14.2666 10.5232 13.733C10.378 13.5626 10.2158 13.4064 10.0388 13.2665C9.48473 12.8286 8.8402 12.6557 8.15017 12.5771C7.49636 12.5027 6.68372 12.5027 5.71939 12.5028ZM3.40594 14.5302C3.9257 14.4711 4.61683 14.4695 5.65818 14.4695C6.69954 14.4695 7.39067 14.4711 7.91043 14.5302C8.40762 14.5868 8.61326 14.6841 8.74319 14.7868C8.81671 14.8449 8.88412 14.9098 8.94445 14.9806C9.05109 15.1057 9.15214 15.3038 9.21091 15.7826C9.27234 16.2831 9.27402 16.9486 9.27402 17.9514C9.27402 18.9542 9.27234 19.6197 9.21091 20.1202C9.15214 20.599 9.05109 20.797 8.94445 20.9221C8.88412 20.9929 8.81671 21.0578 8.74319 21.1159C8.61326 21.2186 8.40762 21.3159 7.91042 21.3725C7.39067 21.4317 6.69954 21.4333 5.65818 21.4333C4.61683 21.4333 3.9257 21.4317 3.40594 21.3725C2.90874 21.3159 2.70311 21.2186 2.57317 21.1159C2.49966 21.0578 2.43225 20.9929 2.37191 20.9221C2.26528 20.797 2.16423 20.599 2.10546 20.1202C2.04402 19.6197 2.04235 18.9542 2.04235 17.9514C2.04235 16.9486 2.04402 16.2831 2.10546 15.7826C2.16423 15.3038 2.26528 15.1057 2.37191 14.9806C2.43225 14.9098 2.49966 14.8449 2.57317 14.7868C2.70311 14.6841 2.90874 14.5868 3.40594 14.5302Z" fill="#9FA19E"/>
<path fill-rule="evenodd" clip-rule="evenodd" d="M18.703 12.5028H18.5806C17.6163 12.5027 16.8036 12.5027 16.1498 12.5771C15.4598 12.6557 14.8153 12.8286 14.2612 13.2665C14.0842 13.4064 13.922 13.5626 13.7768 13.733C13.3221 14.2666 13.1424 14.8872 13.0609 15.5517C12.9836 16.1813 12.9836 16.9638 12.9836 17.8924V18.0103C12.9836 18.9389 12.9836 19.7215 13.0609 20.3511C13.1424 21.0155 13.3221 21.6362 13.7768 22.1698C13.922 22.3402 14.0842 22.4964 14.2612 22.6362C14.8153 23.0741 15.4598 23.2471 16.1498 23.3256C16.8037 23.4 17.6163 23.4 18.5807 23.4H18.703C19.6673 23.4 20.48 23.4 21.1338 23.3256C21.8238 23.2471 22.4684 23.0741 23.0225 22.6362C23.1994 22.4964 23.3616 22.3402 23.5068 22.1698C23.9616 21.6362 24.1412 21.0155 24.2228 20.3511C24.3 19.7215 24.3 18.9389 24.3 18.0103V17.8925C24.3 16.9638 24.3 16.1813 24.2228 15.5517C24.1412 14.8872 23.9616 14.2666 23.5068 13.733C23.3616 13.5626 23.1994 13.4064 23.0225 13.2665C22.4684 12.8286 21.8238 12.6557 21.1338 12.5771C20.48 12.5027 19.6674 12.5027 18.703 12.5028ZM16.3896 14.5302C16.9093 14.4711 17.6005 14.4695 18.6418 14.4695C19.6832 14.4695 20.3743 14.4711 20.8941 14.5302C21.3913 14.5868 21.5969 14.6841 21.7268 14.7868C21.8003 14.8449 21.8678 14.9098 21.9281 14.9806C22.0347 15.1057 22.1358 15.3038 22.1945 15.7826C22.256 16.2831 22.2577 16.9486 22.2577 17.9514C22.2577 18.9542 22.256 19.6197 22.1945 20.1202C22.1358 20.599 22.0347 20.797 21.9281 20.9221C21.8678 20.9929 21.8003 21.0578 21.7268 21.1159C21.5969 21.2186 21.3913 21.3159 20.8941 21.3725C20.3743 21.4317 19.6832 21.4333 18.6418 21.4333C17.6005 21.4333 16.9093 21.4317 16.3896 21.3725C15.8924 21.3159 15.6867 21.2186 15.5568 21.1159C15.4833 21.0578 15.4159 20.9929 15.3556 20.9221C15.2489 20.797 15.1479 20.599 15.0891 20.1202C15.0277 19.6197 15.026 18.9542 15.026 17.9514C15.026 16.9486 15.0277 16.2831 15.0891 15.7826C15.1479 15.3038 15.2489 15.1057 15.3556 14.9806C15.4159 14.9098 15.4833 14.8449 15.5568 14.7868C15.6867 14.6841 15.8924 14.5868 16.3896 14.5302Z" fill="#9FA19E"/>
</svg>
