<svg width="26" height="26" viewBox="0 0 26 26" fill="none" xmlns="http://www.w3.org/2000/svg">
<path fill-rule="evenodd" clip-rule="evenodd" d="M12.0658 23.1133H13.1342C15.5465 23.1133 17.2032 23.1109 18.4772 22.9866C19.7181 22.8654 20.3697 22.6446 20.8375 22.3477C21.4373 21.9671 21.9465 21.4611 22.3296 20.8651C22.6284 20.4003 22.8506 19.7528 22.9725 18.5197C23.0976 17.2537 23.1 15.6075 23.1 13.2105C23.1 10.3176 23.0668 9.42079 22.7731 8.66232C22.6083 8.23674 22.3842 7.83628 22.1073 7.47267C21.6137 6.82463 20.8645 6.32358 18.3912 4.79756L18.1388 4.64183C16.677 3.73993 15.6878 3.13154 14.8705 2.71637C14.0851 2.31736 13.5869 2.16593 13.1434 2.11675C12.7823 2.07671 12.4177 2.07671 12.0566 2.11675C11.6131 2.16593 11.1149 2.31736 10.3295 2.71637C9.51225 3.13154 8.52302 3.73993 7.06124 4.64183L6.80883 4.79756C4.3355 6.32358 3.58626 6.82463 3.09273 7.47267C2.81581 7.83628 2.59166 8.23674 2.42687 8.66232C2.13316 9.42079 2.1 10.3176 2.1 13.2105C2.1 15.6075 2.10237 17.2537 2.22751 18.5197C2.34942 19.7528 2.57163 20.4003 2.87041 20.8651C3.25351 21.4611 3.76267 21.9671 4.36248 22.3477C4.8303 22.6446 5.48188 22.8654 6.72284 22.9866C7.99683 23.1109 9.65354 23.1133 12.0658 23.1133ZM0.466951 7.91295C0 9.11881 0 10.4827 0 13.2105C0 17.9208 0 20.276 1.10059 21.9883C1.64787 22.8398 2.37524 23.5626 3.23212 24.1064C4.95532 25.2 7.32548 25.2 12.0658 25.2H13.1342C17.8745 25.2 20.2447 25.2 21.9679 24.1064C22.8248 23.5626 23.5521 22.8398 24.0994 21.9883C25.2 20.276 25.2 17.9208 25.2 13.2105C25.2 10.4827 25.2 9.11881 24.733 7.91295C24.4976 7.30498 24.1774 6.73289 23.7818 6.21344C22.9972 5.18315 21.8311 4.4637 19.4989 3.02478L19.2465 2.86905C16.3812 1.10118 14.9485 0.217244 13.3763 0.042908C12.8604 -0.0143027 12.3396 -0.0143027 11.8237 0.042908C10.2515 0.217244 8.81881 1.10118 5.95349 2.86905L5.70108 3.02478C3.36892 4.46369 2.20283 5.18315 1.41819 6.21344C1.02258 6.73289 0.702377 7.30498 0.466951 7.91295Z" fill="#9FA19E"/>
<path fill-rule="evenodd" clip-rule="evenodd" d="M7.35 18.3604C7.35 17.7805 7.8201 17.3104 8.4 17.3104H16.8C17.3799 17.3104 17.85 17.7805 17.85 18.3604C17.85 18.9403 17.3799 19.4104 16.8 19.4104H8.4C7.8201 19.4104 7.35 18.9403 7.35 18.3604Z" fill="#9FA19E"/>
</svg>
