<svg width="19" height="25" viewBox="0 0 19 25" fill="none" xmlns="http://www.w3.org/2000/svg">
<path fill-rule="evenodd" clip-rule="evenodd" d="M15.3668 15.476C14.8548 14.327 14.1658 12.717 14.1658 10.989C14.1658 7.86901 13.2878 6.53701 12.5238 5.91201C11.6838 5.22501 10.5018 4.98901 9.16482 4.98901C7.82882 4.98901 6.64682 5.22501 5.80682 5.91201C5.04282 6.53701 4.16482 7.86901 4.16482 10.989C4.16482 12.718 3.47582 14.328 2.96382 15.477C2.91782 15.58 2.87382 15.679 2.83082 15.775C2.30482 16.953 2.03482 17.557 2.00182 18.01C2.00182 18.012 2.00082 18.014 2.00082 18.016C2.06782 18.077 2.20782 18.187 2.44982 18.274C3.43082 18.667 5.41782 18.989 9.16482 18.989C12.9128 18.989 14.8998 18.667 15.8798 18.274C16.1228 18.187 16.2628 18.076 16.3298 18.015C16.3298 18.013 16.3288 18.011 16.3288 18.009C16.2958 17.556 16.0258 16.951 15.4988 15.771C15.4568 15.677 15.4128 15.578 15.3668 15.476ZM16.3368 18.103C16.3338 18.097 16.3308 18.073 16.3348 18.051C16.3408 18.098 16.3388 18.109 16.3368 18.103ZM1.99382 18.104C1.99182 18.11 1.98982 18.099 1.99582 18.053C1.99882 18.075 1.99582 18.098 1.99382 18.104ZM17.3738 15.063C16.7938 13.778 16.1658 12.384 16.1658 10.989C16.1658 3.98901 12.1658 2.98901 9.16482 2.98901C6.16582 2.98901 2.16482 3.98901 2.16482 10.989C2.16482 12.385 1.53582 13.779 0.955825 15.065C-0.543175 18.391 -1.71518 20.989 9.16482 20.989C20.0468 20.989 18.8738 18.389 17.3738 15.063Z" fill="#9FA19E"/>
<path fill-rule="evenodd" clip-rule="evenodd" d="M10.6139 2.081C10.9069 2.118 11.1839 1.905 11.1249 1.616C10.9409 0.712 10.1299 0 9.1649 0C8.1989 0 7.3889 0.712 7.2049 1.616C7.1459 1.905 7.4229 2.118 7.7159 2.081C8.6709 1.959 9.6589 1.959 10.6139 2.081Z" fill="#9FA19E"/>
<path fill-rule="evenodd" clip-rule="evenodd" d="M6.12787 21.911C5.60287 21.876 5.11787 22.281 5.28787 22.779C5.78787 24.245 7.70087 25 9.16487 25C10.6299 25 12.5409 24.245 13.0419 22.779C13.2119 22.281 12.7269 21.876 12.2019 21.911C11.6469 21.948 11.0559 22.486 10.5449 22.706C10.0559 22.918 9.41687 23 9.16487 23C8.86387 23 8.22987 22.932 7.75587 22.726C7.24487 22.505 6.68287 21.948 6.12787 21.911Z" fill="#9FA19E"/>
</svg>
