<svg width="25" height="25" viewBox="0 0 25 25" fill="none" xmlns="http://www.w3.org/2000/svg">
<path d="M10.75 21.4C6.5 20.65 3.25 16.95 3.25 12.5C3.25 7.55 7.3 3.5 12.25 3.5C17.2 3.5 21.25 7.55 21.25 12.5C21.25 16.95 18 20.65 13.75 21.4L13.25 21H11.25L10.75 21.4Z" fill="url(#paint0_linear_119_493)"/>
<path d="M15.75 15L16.15 12.5H13.75V10.75C13.75 10.05 14 9.5 15.1 9.5H16.25V7.2C15.6 7.1 14.9 7 14.25 7C12.2 7 10.75 8.25 10.75 10.5V12.5H8.5V15H10.75V21.35C11.25 21.45 11.75 21.5 12.25 21.5C12.75 21.5 13.25 21.45 13.75 21.35V15H15.75Z" fill="white"/>
<defs>
<linearGradient id="paint0_linear_119_493" x1="12.25" y1="20.877" x2="12.25" y2="3.5" gradientUnits="userSpaceOnUse">
<stop stop-color="#0062E0"/>
<stop offset="1" stop-color="#19AFFF"/>
</linearGradient>
</defs>
</svg>
