<svg width="25" height="25" viewBox="0 0 25 25" fill="none" xmlns="http://www.w3.org/2000/svg">
<path fill-rule="evenodd" clip-rule="evenodd" d="M20.41 12.6932C20.41 12.0905 20.3559 11.511 20.2555 10.9546H12.25V14.2425H16.8246C16.6275 15.3051 16.0286 16.2053 15.1284 16.808V18.9407H17.8755C19.4827 17.461 20.41 15.2819 20.41 12.6932Z" fill="#4285F4"/>
<path fill-rule="evenodd" clip-rule="evenodd" d="M12.2502 21C14.5452 21 16.4693 20.2389 17.8757 18.9407L15.1286 16.8079C14.3675 17.318 13.3939 17.6193 12.2502 17.6193C10.0364 17.6193 8.16248 16.1241 7.49407 14.115H4.6543V16.3173C6.05294 19.0952 8.92749 21 12.2502 21Z" fill="#34A853"/>
<path fill-rule="evenodd" clip-rule="evenodd" d="M7.49387 14.1151C7.32387 13.6051 7.22728 13.0604 7.22728 12.5001C7.22728 11.9399 7.32387 11.3951 7.49387 10.8851V8.68286H4.65409C4.07841 9.83036 3.75 11.1285 3.75 12.5001C3.75 13.8717 4.07841 15.1699 4.65409 16.3174L7.49387 14.1151Z" fill="#FBBC05"/>
<path fill-rule="evenodd" clip-rule="evenodd" d="M12.2502 7.38069C13.4982 7.38069 14.6186 7.80955 15.4995 8.65183L17.9375 6.21387C16.4655 4.84227 14.5414 4 12.2502 4C8.92749 4 6.05294 5.90478 4.6543 8.68273L7.49407 10.885C8.16248 8.87592 10.0364 7.38069 12.2502 7.38069Z" fill="#EA4335"/>
</svg>
